<svg width="279" height="200" viewBox="0 0 279 200" fill="none" xmlns="http://www.w3.org/2000/svg"><g clip-path="url(#clip0_28_110)"><rect width="279" height="200" rx="10" fill="#F4D04E"/><path d="M182.364 -38L243.237 22.8726C255.734 35.3694 255.734 55.6306 243.237 68.1274L165.492 145.873C152.995 158.369 152.995 178.631 165.492 191.127L235.364 261" stroke="#111111" stroke-width="3"/>
<path d="M225.339 149.074L213.195 161.219L227.451 175.476V188.148H240.124L253.853 201.877L265.998 189.732" stroke="#111111" stroke-width="3"/>
<path d="M250.685 123.728L238.54 135.873L252.797 150.13V162.803H265.47L279.199 176.532L291.344 164.387" stroke="#111111" stroke-width="3"/>
<path d="M276.031 98.3826L263.886 110.527L278.143 124.784V137.457H290.816L304.545 151.186L316.689 139.041" stroke="#111111" stroke-width="3"/>
<mask id="mask0_28_110" style="mask-type:alpha" maskUnits="userSpaceOnUse" x="206" y="-8" width="285" height="284">
<rect x="206.864" y="208.536" width="306.228" height="95" transform="rotate(-45 206.864 208.536)" fill="#111111"/>
</mask><g mask="url(#mask0_28_110)"><path d="M225.339 149.074L213.195 161.219L227.451 175.476V188.148H240.124L253.853 201.877L265.998 189.732" stroke="white" stroke-width="3"/>
<path d="M250.685 123.728L238.54 135.873L252.797 150.13V162.803H265.47L279.199 176.532L291.344 164.387" stroke="white" stroke-width="3"/>
<path d="M276.031 98.3826L263.886 110.527L278.143 124.784V137.457H290.816L304.545 151.186L316.689 139.041" stroke="white" stroke-width="3"/>
</g></g><defs><clipPath id="clip0_28_110"><rect width="279" height="200" rx="10" fill="white"/></clipPath></defs></svg>
